HIERARCHY
ROOT Hips
{
	OFFSET -1.602300 6.242603 43.997101
	CHANNELS 6 Xposition Yposition Zposition Zrotation Xrotation Yrotation
	JOINT Chest
	{
		OFFSET -0.204900 1.598101 7.917301
		CHANNELS 6 Xposition Yposition Zposition Zrotation Xrotation Yrotation
		JOINT Chest2
		{
			OFFSET 0.000000 0.000000 3.404099
			CHANNELS 6 Xposition Yposition Zposition Zrotation Xrotation Yrotation
			JOINT Neck
			{
				OFFSET 0.000000 0.000000 7.928600
				CHANNELS 6 Xposition Yposition Zposition Zrotation Xrotation Yrotation
				JOINT Head
				{
					OFFSET 0.000000 0.000000 2.173897
					CHANNELS 6 Xposition Yposition Zposition Zrotation Xrotation Yrotation
					End Site
					{
						OFFSET 0.000000 0.000001 10.404503
					}
				}
			}
			JOINT LeftCollar
			{
				OFFSET 2.833800 -1.396299 4.843300
				CHANNELS 6 Xposition Yposition Zposition Zrotation Xrotation Yrotation
				JOINT LeftShoulder
				{
					OFFSET 4.363600 0.000000 0.000000
					CHANNELS 6 Xposition Yposition Zposition Zrotation Xrotation Yrotation
					JOINT LeftElbow
					{
						OFFSET 0.000000 -0.000001 -10.306900
						CHANNELS 6 Xposition Yposition Zposition Zrotation Xrotation Yrotation
						JOINT LeftWrist
						{
							OFFSET 0.000000 -0.000001 -12.404900
							CHANNELS 6 Xposition Yposition Zposition Zrotation Xrotation Yrotation
							End Site
							{
								OFFSET 0.000000 0.000000 -2.173901
							}
						}
					}
				}
			}
			JOINT RightCollar
			{
				OFFSET -2.354800 -1.897200 5.063099
				CHANNELS 6 Xposition Yposition Zposition Zrotation Xrotation Yrotation
				JOINT RightShoulder
				{
					OFFSET -4.375800 0.000000 0.000000
					CHANNELS 6 Xposition Yposition Zposition Zrotation Xrotation Yrotation
					JOINT RightElbow
					{
						OFFSET 0.000000 -0.000001 -10.005001
						CHANNELS 6 Xposition Yposition Zposition Zrotation Xrotation Yrotation
						JOINT RightWrist
						{
							OFFSET 0.000000 -0.000001 -13.174900
							CHANNELS 6 Xposition Yposition Zposition Zrotation Xrotation Yrotation
							End Site
							{
								OFFSET 0.000000 0.000000 -2.173901
							}
						}
					}
				}
			}
		}
	}
	JOINT LeftHip
	{
		OFFSET 2.240600 0.386800 -2.614101
		CHANNELS 6 Xposition Yposition Zposition Zrotation Xrotation Yrotation
		JOINT LeftKnee
		{
			OFFSET 0.000000 -0.000001 -18.592899
			CHANNELS 6 Xposition Yposition Zposition Zrotation Xrotation Yrotation
			JOINT LeftAnkle
			{
				OFFSET 0.000000 -0.000001 -18.765800
				CHANNELS 6 Xposition Yposition Zposition Zrotation Xrotation Yrotation
				End Site
				{
					OFFSET 0.000000 -8.655000 0.000000
				}
			}
		}
	}
	JOINT RightHip
	{
		OFFSET -2.014900 -0.220900 -2.615898
		CHANNELS 6 Xposition Yposition Zposition Zrotation Xrotation Yrotation
		JOINT RightKnee
		{
			OFFSET 0.000000 -0.000001 -18.633900
			CHANNELS 6 Xposition Yposition Zposition Zrotation Xrotation Yrotation
			JOINT RightAnkle
			{
				OFFSET 0.000000 -0.000001 -18.285101
				CHANNELS 6 Xposition Yposition Zposition Zrotation Xrotation Yrotation
				End Site
				{
					OFFSET 0.000000 -7.524500 0.000000
				}
			}
		}
	}
}
MOTION
Frames: 4
Frame Time: 0.041667
-6.361000 27.187305 7.067612 5.266143 -7.615115 3.315122 -0.204901 1.598103 7.917308 -4.713448 19.195145 1.141992 -0.000000 -0.000002 3.404102 -1.792213 -16.000244 -1.979520 -0.000000 0.000001 7.928602 3.489367 2.881798 -4.564156 0.000000 0.000003 2.173897 1.008649 -5.253405 2.025703 2.833801 -1.396300 4.843303 10.900533 6.734151 10.062086 4.363590 0.000005 -0.000003 -17.773761 17.709750 -98.896187 0.000001 -0.000001 -10.306894 585.945209 -178.909565 540.144911 -0.000003 0.000004 -12.404900 -205.789706 377.257139 -342.592180 -2.354803 -1.897203 5.063104 13.076296 11.726685 -20.533628 -4.375793 -0.000001 -0.000008 -1.270816 6.047245 109.553611 -0.000002 -0.000003 -10.004995 -577.479654 -179.160793 -538.016241 0.000001 0.000001 -13.174894 28.421220 -4.521356 401.860026 2.240599 0.386802 -2.614101 134.917738 -38.717795 102.277035 -0.000000 -0.000000 -18.592896 -121.275828 44.459822 139.029990 0.000000 -0.000000 -18.765797 4.162249 37.365301 -6.980616 -2.014895 -0.220894 -2.615900 -115.579273 -16.068865 -92.096358 -0.000000 0.000003 -18.633888 176.096511 28.047439 -178.034495 -0.000006 -0.000004 -18.285084 -15.711450 32.891046 -205.478878
-6.349599 27.143507 7.096806 5.198601 -7.339094 3.325750 -0.204900 1.598099 7.917306 -4.642066 18.600753 0.990505 0.000000 -0.000000 3.404101 -1.449055 -15.901078 -1.798214 -0.000000 -0.000001 7.928603 3.291552 3.198124 -4.590106 -0.000001 0.000003 2.173897 0.957960 -5.235182 2.050069 2.833802 -1.396302 4.843300 10.020533 6.929568 9.854072 4.363594 0.000006 -0.000005 -17.347289 17.407140 -98.624626 0.000002 -0.000002 -10.306893 584.752712 -178.554013 540.292279 0.000003 -0.000002 -12.404891 -207.336075 377.037753 -340.805403 -2.354802 -1.897202 5.063103 12.829984 11.936970 -20.327145 -4.375795 -0.000001 -0.000003 -1.594131 7.046188 109.445763 -0.000002 -0.000002 -10.004987 -576.247870 -179.183128 -538.060829 0.000006 -0.000000 -13.174900 26.752101 -4.934346 397.734920 2.240599 0.386804 -2.614102 135.141208 -38.723064 102.475903 -0.000001 0.000001 -18.592892 -118.674332 42.373018 137.151715 0.000001 0.000001 -18.765797 6.820021 36.905609 -6.980917 -2.014896 -0.220897 -2.615899 -115.599080 -16.090339 -92.247463 0.000000 0.000004 -18.633884 176.060803 28.019084 -178.059548 -0.000006 -0.000006 -18.285086 -15.645575 32.904351 -205.564652
-6.337600 27.091106 7.128109 5.136152 -7.008432 3.346053 -0.204900 1.598101 7.917310 -4.575831 17.891633 0.810872 -0.000000 0.000005 3.404095 -1.334487 -15.790655 -1.772375 -0.000001 -0.000001 7.928600 3.298103 3.599943 -4.508629 0.000000 -0.000000 2.173906 0.914338 -5.152796 2.028782 2.833801 -1.396302 4.843307 9.428504 7.192648 9.712788 4.363595 0.000004 -0.000007 -16.948529 16.825141 -98.336556 -0.000002 0.000005 -10.306890 583.554151 -178.019332 540.505982 -0.000006 0.000001 -12.404894 -208.924053 376.651192 -339.097227 -2.354804 -1.897201 5.063101 12.895223 12.218414 -19.961600 -4.375793 0.000000 -0.000003 -1.837033 7.455046 109.288539 0.000000 -0.000002 -10.004991 -575.448574 -179.163963 -538.098805 0.000006 -0.000001 -13.174902 25.999330 -5.575013 392.777733 2.240600 0.386803 -2.614097 135.406670 -38.727473 102.728886 0.000001 0.000001 -18.592894 -116.721021 40.716513 135.841398 -0.000002 0.000001 -18.765799 8.663375 36.572248 -6.830148 -2.014899 -0.220898 -2.615894 -115.636851 -16.090652 -92.420949 -0.000001 0.000004 -18.633883 176.039219 27.985361 -178.104095 -0.000004 -0.000005 -18.285084 -15.581533 32.920337 -205.661982
-6.325799 27.030806 7.161110 5.095792 -6.674679 3.326429 -0.204900 1.598101 7.917308 -4.550890 17.146522 0.712737 0.000000 0.000000 3.404096 -1.210845 -15.675619 -1.747341 -0.000001 0.000002 7.928600 3.255453 4.069096 -4.432934 -0.000001 0.000004 2.173898 0.877491 -5.059381 1.988655 2.833801 -1.396300 4.843301 8.878496 7.485854 9.596845 4.363591 0.000008 -0.000008 -16.552014 16.032824 -98.175650 0.000001 0.000002 -10.306894 582.604918 -177.390108 540.757060 -0.000003 0.000002 -12.404895 -210.713071 376.157833 -337.120652 -2.354803 -1.897200 5.063096 12.898834 12.437214 -19.608676 -4.375793 0.000000 -0.000004 -1.935881 7.566380 109.175936 -0.000001 -0.000003 -10.004999 -575.473272 -179.100237 -538.117055 0.000002 0.000001 -13.174891 26.342573 -6.543504 386.468004 2.240599 0.386801 -2.614104 135.641587 -38.709909 102.938191 -0.000000 0.000001 -18.592888 -115.336063 39.506873 134.999850 -0.000000 0.000000 -18.765795 9.966874 36.333031 -6.788573 -2.014896 -0.220898 -2.615900 -115.697011 -16.128535 -92.594511 -0.000000 0.000003 -18.633888 176.057743 27.946976 -178.176522 -0.000005 -0.000006 -18.285086 -15.508955 32.941111 -205.780923
